<svg width="48" height="23" viewBox="0 0 48 23" fill="none" xmlns="http://www.w3.org/2000/svg">
<path fill-rule="evenodd" clip-rule="evenodd" d="M11.4806 22.0201C17.8211 22.0201 22.9612 17.0908 22.9612 11.0101C22.9612 4.92938 17.8211 0 11.4806 0C5.14003 0 0 4.92938 0 11.0101C0 17.0908 5.14003 22.0201 11.4806 22.0201ZM36.5194 22.0201C42.86 22.0201 48 17.0908 48 11.0101C48 4.92938 42.86 0 36.5194 0C30.1789 0 25.0388 4.92938 25.0388 11.0101C25.0388 17.0908 30.1789 22.0201 36.5194 22.0201Z" fill="white"/>
<path fill-rule="evenodd" clip-rule="evenodd" d="M11.4806 19.0107C16.279 19.0107 19.9517 15.3112 19.9517 11.0101C19.9517 6.70891 16.279 3.00947 11.4806 3.00947C6.68219 3.00947 3.00947 6.70891 3.00947 11.0101C3.00947 15.3112 6.68219 19.0107 11.4806 19.0107ZM22.9279 11.8552C22.4778 17.541 17.5246 22.0201 11.4806 22.0201C5.14003 22.0201 0 17.0908 0 11.0101C0 4.92938 5.14003 0 11.4806 0C17.0487 0 21.6909 3.80143 22.7394 8.84571H23.9377H24.4669H25.2606C26.3091 3.80144 30.9513 3.91859e-06 36.5194 3.91859e-06C42.86 3.91859e-06 48 4.92938 48 11.0101C48 17.0908 42.86 22.0201 36.5194 22.0201C30.4754 22.0201 25.5222 17.541 25.0721 11.8552H24.4669H23.9377H22.9279ZM36.5194 19.0107C41.3178 19.0107 44.9905 15.3112 44.9905 11.0101C44.9905 6.70892 41.3178 3.00948 36.5194 3.00948C31.721 3.00948 28.0483 6.70892 28.0483 11.0101C28.0483 15.3112 31.721 19.0107 36.5194 19.0107ZM6.96363 10.5396C6.54785 10.5396 6.2108 10.8766 6.2108 11.2924C6.2108 11.7082 6.54785 12.0452 6.96363 12.0452H7.49019C7.47388 12.1368 7.46536 12.2312 7.46536 12.3275C7.46536 13.211 8.1816 13.9273 9.06512 13.9273C9.94864 13.9273 10.6649 13.211 10.6649 12.3275C10.6649 12.2312 10.6564 12.1368 10.64 12.0452H16.5622C16.9779 12.0452 17.315 11.7082 17.315 11.2924C17.315 10.8766 16.9779 10.5396 16.5622 10.5396H6.96363ZM30.3013 11.2924C30.3013 10.8766 30.6383 10.5396 31.0541 10.5396H40.6526C41.0684 10.5396 41.4054 10.8766 41.4054 11.2924C41.4054 11.7082 41.0684 12.0452 40.6526 12.0452H35.2463C35.2626 12.1368 35.2711 12.2312 35.2711 12.3275C35.2711 13.211 34.5549 13.9273 33.6713 13.9273C32.7878 13.9273 32.0716 13.211 32.0716 12.3275C32.0716 12.2312 32.0801 12.1368 32.0964 12.0452H31.0541C30.6383 12.0452 30.3013 11.7082 30.3013 11.2924Z" fill="black"/>
</svg>
